<?xml version="1.0" standalone="no"?>
<!DOCTYPE svg PUBLIC "-//W3C//DTD SVG 20010904//EN"
 "http://www.w3.org/TR/2001/REC-SVG-20010904/DTD/svg10.dtd">
<svg version="1.0" xmlns="http://www.w3.org/2000/svg"
 width="700.000000pt" height="700.000000pt" viewBox="0 0 700.000000 700.000000"
 preserveAspectRatio="xMidYMid meet">
<metadata>
Created by potrace 1.14, written by Peter Selinger 2001-2017
</metadata>
<g transform="translate(0.000000,700.000000) scale(0.100000,-0.100000)"
fill="#000000" stroke="none">
<path d="M3270 6213 c-102 -17 -261 -91 -351 -163 -135 -109 -178 -197 -181
-369 -1 -63 -5 -87 -17 -97 -9 -7 -43 -33 -76 -57 -182 -135 -360 -376 -424
-573 -49 -150 -46 -307 9 -414 29 -57 107 -133 166 -163 98 -49 195 -66 404
-72 117 -3 168 0 210 11 30 8 56 11 58 6 4 -14 47 -70 88 -115 82 -92 82 -82
3 -83 -86 -1 -104 -13 -176 -113 -55 -76 -66 -117 -35 -123 11 -2 -5 -14 -43
-31 -73 -34 -310 -128 -384 -152 -29 -9 -65 -24 -80 -31 -14 -8 -30 -14 -34
-14 -18 0 -165 -75 -227 -116 -220 -144 -316 -324 -488 -909 -23 -79 -61 -217
-67 -243 -2 -9 -19 -80 -38 -157 -19 -77 -40 -171 -46 -210 -6 -38 -17 -83
-23 -98 -9 -24 -8 -33 9 -55 12 -16 33 -29 53 -32 l32 -5 0 -200 c0 -232 10
-292 67 -410 44 -92 114 -168 186 -204 36 -18 65 -24 119 -25 72 0 136 7 169
20 17 6 18 2 14 -42 -6 -55 6 -79 33 -64 9 5 84 7 166 5 82 -2 334 -7 559 -10
540 -6 1002 -15 1095 -20 257 -14 371 -19 420 -18 30 1 58 -3 61 -9 4 -6 15
-8 24 -4 14 5 17 15 13 51 -6 45 -5 45 26 45 67 0 154 42 244 118 99 83 115
137 115 395 l-1 127 37 1 c20 1 47 3 61 4 42 6 482 56 525 60 22 3 65 7 95 10
134 13 220 33 250 58 40 32 72 98 85 177 4 19 17 96 30 170 13 74 26 151 29
170 3 19 7 44 10 55 2 11 7 42 10 68 4 27 9 59 12 70 2 12 9 51 14 87 6 36 13
76 15 89 2 13 7 45 11 70 4 25 8 55 10 66 3 11 7 36 9 55 3 19 8 44 10 56 3
11 7 42 10 69 4 27 8 51 10 54 2 3 6 31 10 61 4 30 10 74 14 97 5 23 5 47 1
53 -7 11 -196 8 -350 -5 -25 -2 -85 -7 -135 -10 -102 -8 -123 -9 -220 -20
-141 -15 -229 -25 -265 -30 -150 -21 -197 -28 -269 -41 -46 -8 -89 -14 -96
-14 -14 0 -41 59 -90 195 -59 161 -108 233 -207 300 -47 32 -299 142 -342 150
-32 6 -37 12 -36 40 0 3 -6 18 -14 33 -15 29 -127 97 -140 85 -3 -3 -6 7 -6
24 0 27 7 33 64 62 139 71 231 185 297 371 22 61 55 186 64 240 12 79 19 97
47 132 42 54 70 140 72 224 1 62 3 70 18 66 30 -7 88 8 88 23 0 8 -7 16 -15
16 -8 1 -25 2 -37 3 -13 1 -31 -2 -40 -6 -14 -7 -18 -4 -18 11 0 11 8 22 18
25 44 14 175 146 233 234 135 205 131 408 -11 551 -65 65 -84 79 -175 127 -76
41 -203 84 -290 99 -66 11 -326 14 -385 4 -30 -5 -73 -11 -95 -15 -22 -3 -58
-9 -79 -14 -38 -8 -40 -7 -82 39 -87 97 -262 149 -414 124z m1241 -1210 c6
-86 -4 -159 -29 -216 l-19 -42 4 125 c3 69 6 131 8 138 6 18 35 14 36 -5z
m1606 -1945 c-3 -8 -6 -5 -6 6 -1 11 2 17 5 13 3 -3 4 -12 1 -19z m-156 -895
c-12 -20 -14 -14 -5 12 4 9 9 14 11 11 3 -2 0 -13 -6 -23z m-19 -120 c-9 -51
-19 -93 -22 -93 -4 0 1 42 11 93 10 50 19 94 19 96 0 2 2 2 4 0 2 -2 -3 -46
-12 -96z m-25 -135 c-3 -7 -5 -2 -5 12 0 14 2 19 5 13 2 -7 2 -19 0 -25z"/>
</g>
</svg>
